<?xml version="1.0" encoding="UTF-8"?>
<!-- Created with Inkscape (http://www.inkscape.org/) -->
<svg width="200" height="200" version="1.1" viewBox="0 0 52.917 52.917" xmlns="http://www.w3.org/2000/svg">
 <g transform="matrix(.88095 0 0 .88095 -25.106 -29.741)">
  <g transform="translate(4.9514e-6 -2.2341)">
   <g transform="matrix(.66064 0 0 .66064 18.577 13.53)">
    <path d="m57.653 60.526-0.0575-5.7601" fill="none" stroke="#000" stroke-width=".7"/>
    <path d="m57.653 81.645-0.0575-5.7601" fill="none" stroke="#000" stroke-width=".7"/>
    <g transform="translate(15.893 3.4464)">
     <rect x="37.034" y="57.641" width="9.3942" height="14.453" fill="#0d2836" stroke="#0d2836" stroke-linecap="round" stroke-linejoin="round" stroke-width="2" style="paint-order:stroke fill markers"/>
     <text x="40.338604" y="66.465279" fill="#ffffff" font-family="Consolas" font-size="4.9389px" letter-spacing="0px" stroke-width=".26458" word-spacing="0px" style="line-height:1.25" xml:space="preserve"><tspan x="40.338604" y="66.465279" fill="#ffffff" font-size="4.9389px" stroke-width=".26458">2</tspan></text>
    </g>
    <g transform="translate(15.893 24.119)" fill="#0d2836">
     <rect x="37.034" y="57.641" width="9.3942" height="14.453" stroke="#0d2836" stroke-linecap="round" stroke-linejoin="round" stroke-width="2" style="paint-order:stroke fill markers"/>
     <text x="40.338604" y="66.465279" font-family="Consolas" font-size="4.9389px" letter-spacing="0px" stroke-width=".26458" word-spacing="0px" style="line-height:1.25" xml:space="preserve"><tspan x="40.338604" y="66.465279" fill="#ffffff" font-size="4.9389px" stroke-width=".26458">3</tspan></text>
    </g>
    <rect transform="translate(15.893 44.791)" x="37.034" y="57.641" width="9.3942" height="14.453" fill="none" stroke="#0d2836" stroke-linecap="round" stroke-linejoin="round" stroke-width="2" style="paint-order:stroke fill markers"/>
    <text transform="translate(15.893 44.791)" x="40.338604" y="66.465279" fill="#0d2836" font-family="Consolas" font-size="4.9389px" letter-spacing="0px" stroke-width=".26458" word-spacing="0px" style="line-height:1.25" xml:space="preserve"><tspan x="40.338604" y="66.465279" fill="#0d2836" font-size="4.9389px" stroke-width=".26458">4</tspan></text>
    <path d="m57.556 39.419v-3.701h10.478v21.701h-7.406v-2.3704" fill="none" stroke="#6d748d" stroke-width=".45"/>
    <g transform="translate(-14.853 -17.226)">
     <rect x="67.78" y="57.641" width="9.3942" height="14.453" fill="#0d2836" stroke="#0d2836" stroke-linecap="round" stroke-linejoin="round" stroke-width="2" style="paint-order:stroke fill markers"/>
     <text x="71.112366" y="66.450813" fill="#ffffff" font-family="Consolas" font-size="4.9389px" letter-spacing="0px" stroke-width=".26458" word-spacing="0px" style="line-height:1.25" xml:space="preserve"><tspan x="71.112366" y="66.450813" fill="#ffffff" font-size="4.9389px" stroke-width=".26458">1</tspan></text>
    </g>
    <path d="m57.653 101.92-0.0575-5.7601" fill="none" stroke="#000" stroke-width=".7"/>
    <path d="m57.653 123.22-0.0575-5.7601" fill="none" stroke="#000" stroke-width=".7"/>
   </g>
  </g>
 </g>
</svg>
