<?xml version="1.0" encoding="UTF-8"?>
<!-- Created with Inkscape (http://www.inkscape.org/) -->
<svg width="200" height="200" version="1.1" viewBox="0 0 52.917 52.917" xmlns="http://www.w3.org/2000/svg">
 <g transform="matrix(.90167 0 0 .90167 -26.319 -31.197)">
  <path d="m58.361 37.925v-2.445h6.9222v14.337h-4.8927v-1.566" fill="none" stroke="#6d748d" stroke-width=".29729"/>
  <g transform="translate(1.8871)">
   <path d="m56.665 51.282-0.03799-3.8054" fill="none" stroke="#000" stroke-width=".46245"/>
   <path d="m56.665 65.234-0.037987-3.8054" fill="none" stroke="#000" stroke-width=".46245"/>
   <g transform="matrix(.66064 0 0 .66064 29.077 13.573)">
    <rect x="37.034" y="57.641" width="9.3942" height="14.453" fill="#0d2836" stroke="#0d2836" stroke-linecap="round" stroke-linejoin="round" stroke-width="2" style="paint-order:stroke fill markers"/>
    <text x="40.338604" y="66.465279" fill="#ffffff" font-family="Consolas" font-size="4.9389px" letter-spacing="0px" stroke-width=".26458" word-spacing="0px" style="line-height:1.25" xml:space="preserve"><tspan x="40.338604" y="66.465279" fill="#ffffff" font-size="4.9389px" stroke-width=".26458">2</tspan></text>
   </g>
   <g transform="matrix(.66064 0 0 .66064 29.077 27.23)" fill="#0d2836">
    <rect x="37.034" y="57.641" width="9.3942" height="14.453" stroke="#0d2836" stroke-linecap="round" stroke-linejoin="round" stroke-width="2" style="paint-order:stroke fill markers"/>
    <text x="40.338604" y="66.465279" font-family="Consolas" font-size="4.9389px" letter-spacing="0px" stroke-width=".26458" word-spacing="0px" style="line-height:1.25" xml:space="preserve"><tspan x="40.338604" y="66.465279" fill="#ffffff" font-size="4.9389px" stroke-width=".26458">3</tspan></text>
   </g>
   <rect x="53.543" y="78.967" width="6.2062" height="9.5482" fill="none" stroke="#0d2836" stroke-linecap="round" stroke-linejoin="round" stroke-width="1.3213" style="paint-order:stroke fill markers"/>
   <text x="55.725853" y="84.796249" fill="#0d2836" font-family="Consolas" font-size="3.2628px" letter-spacing="0px" stroke-width=".17479" word-spacing="0px" style="line-height:1.25" xml:space="preserve"><tspan x="55.725853" y="84.796249" fill="#0d2836" font-size="3.2628px" stroke-width=".17479">4</tspan></text>
   <g transform="matrix(.66064 0 0 .66064 8.7645 -.084285)">
    <rect x="67.78" y="57.641" width="9.3942" height="14.453" fill="#0d2836" stroke="#0d2836" stroke-linecap="round" stroke-linejoin="round" stroke-width="2" style="paint-order:stroke fill markers"/>
    <text x="71.112366" y="66.450813" fill="#ffffff" font-family="Consolas" font-size="4.9389px" letter-spacing="0px" stroke-width=".26458" word-spacing="0px" style="line-height:1.25" xml:space="preserve"><tspan x="71.112366" y="66.450813" fill="#ffffff" font-size="4.9389px" stroke-width=".26458">1</tspan></text>
   </g>
   <path d="m56.665 78.628-0.03799-3.8054" fill="none" stroke="#000" stroke-width=".46245"/>
   <path d="m56.665 92.7-0.03799-3.8054" fill="none" stroke="#000" stroke-width=".46245"/>
  </g>
 </g>
</svg>
