<?xml version="1.0" encoding="UTF-8"?>
<!-- Created with Inkscape (http://www.inkscape.org/) -->
<svg width="200" height="200" version="1.1" viewBox="0 0 52.917 52.917" xmlns="http://www.w3.org/2000/svg">
 <g transform="matrix(.88095 0 0 .88095 -25.106 -29.741)">
  <g transform="translate(-5.5369 -7.7108)">
   <g fill="none" stroke="#000">
    <path d="m62.201 86.959-0.03799-6.3331" stroke-width=".46245"/>
    <path d="m62.201 71.165-0.03799-5.9229" stroke-width=".46245"/>
    <path d="m77.628 81.333 0.05621 5.8512h-30.947l-0.05621-5.8512" stroke-width=".5625"/>
   </g>
   <g transform="matrix(.66064 0 0 .66064 34.613 17.746)" fill="#0d2836">
    <rect x="37.034" y="57.641" width="9.3942" height="14.453" stroke="#0d2836" stroke-linecap="round" stroke-linejoin="round" stroke-width="2" style="paint-order:stroke fill markers"/>
    <text x="40.338604" y="66.465279" font-family="Consolas" font-size="4.9389px" letter-spacing="0px" stroke-width=".26458" word-spacing="0px" style="line-height:1.25" xml:space="preserve"><tspan x="40.338604" y="66.465279" fill="#ffffff" font-size="4.9389px" stroke-width=".26458">3</tspan></text>
   </g>
   <path d="m77.847 70.59v-2.445h6.9222v14.337h-4.8927v-1.566" fill="none" stroke="#6d748d" stroke-width=".29729"/>
   <g transform="matrix(.66064 0 0 .66064 24.114 3.5773)">
    <rect transform="translate(15.893 44.791)" x="37.034" y="57.641" width="9.3942" height="14.453" fill="none" stroke="#0d2836" stroke-linecap="round" stroke-linejoin="round" stroke-width="2" style="paint-order:stroke fill markers"/>
    <text transform="translate(15.893 44.791)" x="40.338604" y="66.465279" fill="#0d2836" font-family="Consolas" font-size="4.9389px" letter-spacing="0px" stroke-width=".26458" word-spacing="0px" style="line-height:1.25" xml:space="preserve"><tspan x="40.338604" y="66.465279" fill="#0d2836" font-size="4.9389px" stroke-width=".26458">2</tspan></text>
   </g>
   <g transform="matrix(.66064 0 0 .66064 18.903 33.168)" fill="#0d2836">
    <rect x="37.034" y="57.641" width="9.3942" height="14.453" fill="none" stroke="#0d2836" stroke-linecap="round" stroke-linejoin="round" stroke-width="2" style="paint-order:stroke fill markers"/>
    <text x="40.385628" y="66.443573" fill="#0d2836" font-family="Consolas" font-size="4.9389px" letter-spacing="0px" stroke-width=".26458" word-spacing="0px" style="line-height:1.25" xml:space="preserve"><tspan x="40.385628" y="66.443573" fill="#0d2836" font-size="4.9389px" stroke-width=".26458">4</tspan></text>
   </g>
   <g transform="translate(7.0967 -4.1761)">
    <rect x="67.692" y="75.424" width="6.2061" height="9.5479" fill="none" stroke="#0d2836" stroke-linecap="round" stroke-linejoin="round" stroke-width="1.3213" style="paint-order:stroke fill markers"/>
    <text x="69.89357" y="81.243988" fill="#0d2836" font-family="Consolas" font-size="3.2628px" letter-spacing="0px" stroke-width=".17479" word-spacing="0px" style="line-height:1.25" xml:space="preserve"><tspan x="69.89357" y="81.243988" fill="#0d2836" font-size="3.2628px" stroke-width=".17479">1</tspan></text>
   </g>
  </g>
 </g>
</svg>
