<?xml version="1.0" encoding="UTF-8" standalone="no"?>
<!-- Uploaded to: SVG Repo, www.svgrepo.com, Generator: SVG Repo Mixer Tools -->

<svg
   fill="#000000"
   width="800px"
   height="800px"
   viewBox="0 0 256 256"
   id="Flat"
   version="1.1"
   sodipodi:docname="ble_connected.svg"
   inkscape:version="1.3.2 (091e20e, 2023-11-25, custom)"
   xmlns:inkscape="http://www.inkscape.org/namespaces/inkscape"
   xmlns:sodipodi="http://sodipodi.sourceforge.net/DTD/sodipodi-0.dtd"
   xmlns="http://www.w3.org/2000/svg"
   xmlns:svg="http://www.w3.org/2000/svg">
  <defs
     id="defs1" />
  <sodipodi:namedview
     id="namedview1"
     pagecolor="#ffffff"
     bordercolor="#666666"
     borderopacity="1.0"
     inkscape:showpageshadow="2"
     inkscape:pageopacity="0.0"
     inkscape:pagecheckerboard="0"
     inkscape:deskcolor="#d1d1d1"
     inkscape:zoom="1.0275"
     inkscape:cx="400"
     inkscape:cy="400"
     inkscape:window-width="1920"
     inkscape:window-height="1018"
     inkscape:window-x="-6"
     inkscape:window-y="-6"
     inkscape:window-maximized="1"
     inkscape:current-layer="Flat" />
  <path
     d="M186.3999,172.80017,126.667,128.00037,186.3999,83.20056a4.00024,4.00024,0,0,0,0-6.40039l-64-48A3.99971,3.99971,0,0,0,116,32.00037v87.99975L58.3999,76.80017a4.0001,4.0001,0,1,0-4.7998,6.40039L113.333,128.00037,53.6001,172.80017a4.0001,4.0001,0,0,0,4.7998,6.40039l57.6001-43.2v87.99982a4.00011,4.00011,0,0,0,6.3999,3.20019l64-48a4.00024,4.00024,0,0,0,0-6.40039ZM124,40.00037l53.3335,40-53.3335,40Zm0,176v-80l53.3335,40Zm80-88a8,8,0,1,1-8-8A8.00917,8.00917,0,0,1,204,128.00037Zm-152,8a8,8,0,1,1,8-8A8.00917,8.00917,0,0,1,52,136.00037Z"
     id="path1"
     style="fill:#ffffff" />
</svg>
