<?xml version="1.0" encoding="UTF-8"?>
<!-- Uploaded to: SVG Repo, www.svgrepo.com, Generator: SVG Repo Mixer Tools -->
<svg width="800px" height="800px" version="1.1" fill="#04303e" viewBox="0 0 24 24" xmlns="http://www.w3.org/2000/svg">
<g>
 <path d="m23.363 3.4781h-15.908v-1.1363h15.908zm0 17.044h-15.908v1.1363h15.908zm0-9.09h-15.908v1.1363h15.908zm-19.316 7.9538a1.1363 1.1363 0 0 0-1.1363-1.1363h-1.1363c-0.62835 0-1.1363 0-1.1363 1.1363h2.2725v1.1363h-0.56813a0.56813 0.56813 0 0 0 0 1.1363h0.56813v1.1363h-2.2725c0 1.1363 0.50791 1.1363 1.1363 1.1363h1.1363a1.1363 1.1363 0 0 0 1.1363-1.1363v-1.1363a1.1078 1.1078 0 0 0-0.17385-0.56813 1.0953 1.0953 0 0 0 0.17385-0.56813zm0-14.771h-1.1363v-4.545h-2.2725v1.1363h1.1363v3.4088h-1.1363v1.1363h3.4088zm-1.1363 7.9538a1.1363 1.1363 0 0 0 1.1363-1.1363v-1.1363a1.1363 1.1363 0 0 0-1.1363-1.1363h-1.1363a1.1363 1.1363 0 0 0-1.1363 1.1363h2.2725v1.1363h-1.1363a1.1363 1.1363 0 0 0-1.1363 1.1363v1.1363a1.1363 1.1363 0 0 0 1.1363 1.1363h2.2725v-1.1363h-2.2725v-1.1363z" stroke-width="1.1362"/>
</g>
</svg>
