<?xml version="1.0" encoding="UTF-8"?>
<!-- Uploaded to: SVG Repo, www.svgrepo.com, Generator: SVG Repo Mixer Tools -->
<svg width="800px" height="800px" fill="#04303E" version="1.1" viewBox="0 0 465 465" xml:space="preserve" xmlns="http://www.w3.org/2000/svg">
<g transform="matrix(1 0 0 1.2179 0 -50.656)" >
	<path d="m378.75 215.89c-4.143 0-7.5 3.357-7.5 7.5v93.968c0 4.143 3.357 7.5 7.5 7.5s7.5-3.357 7.5-7.5v-93.968c0-4.143-3.357-7.5-7.5-7.5z"/>
	<path d="m360 210.89h37.505c4.143 0 7.5-3.357 7.5-7.5v-76.459c0-4.143-3.357-7.5-7.5-7.5h-11.252v-30.854c0-4.143-3.357-7.5-7.5-7.5s-7.5 3.357-7.5 7.5v30.854h-11.253c-4.143 0-7.5 3.357-7.5 7.5v76.459c0 4.142 3.357 7.5 7.5 7.5zm7.5-76.459h22.505v61.459h-22.505z"/>
	<path d="m281.25 292.54c-4.143 0-7.5 3.357-7.5 7.5v18.354c0 4.143 3.357 7.5 7.5 7.5s7.5-3.357 7.5-7.5v-18.354c0-4.143-3.357-7.5-7.5-7.5z"/>
	<path d="m262.5 287.54h37.505c4.143 0 7.5-3.357 7.5-7.5v-76.459c0-4.143-3.357-7.5-7.5-7.5h-11.252v-106.47c0-4.143-3.357-7.5-7.5-7.5s-7.5 3.357-7.5 7.5v106.47h-11.253c-4.143 0-7.5 3.357-7.5 7.5v76.459c0 4.143 3.357 7.5 7.5 7.5zm7.5-76.459h22.505v61.459h-22.505z"/>
	<path d="m183.75 215.89c-4.142 0-7.5 3.357-7.5 7.5v93.968c0 4.143 3.358 7.5 7.5 7.5s7.5-3.357 7.5-7.5v-93.968c0-4.143-3.358-7.5-7.5-7.5z"/>
	<path d="m165 210.89h37.505c4.142 0 7.5-3.357 7.5-7.5v-76.459c0-4.143-3.358-7.5-7.5-7.5h-11.252v-30.854c0-4.143-3.358-7.5-7.5-7.5s-7.5 3.357-7.5 7.5v30.854h-11.252c-4.142 0-7.5 3.357-7.5 7.5v76.459c-1e-3 4.142 3.357 7.5 7.499 7.5zm7.5-76.459h22.505v61.459h-22.505z"/>
	<path d="m86.249 292.54c-4.142 0-7.5 3.357-7.5 7.5v18.354c0 4.143 3.358 7.5 7.5 7.5s7.5-3.357 7.5-7.5v-18.354c0-4.143-3.358-7.5-7.5-7.5z"/>
	<path d="m67.496 287.54h37.505c4.142 0 7.5-3.357 7.5-7.5v-76.459c0-4.143-3.358-7.5-7.5-7.5h-11.252v-106.47c0-4.143-3.358-7.5-7.5-7.5s-7.5 3.357-7.5 7.5v106.47h-11.253c-4.142 0-7.5 3.357-7.5 7.5v76.459c0 4.143 3.358 7.5 7.5 7.5zm7.5-76.459h22.505v61.459h-22.505z"/>
	<path d="m457.5 41.594h-450c-4.142 0-7.5 3.357-7.5 7.5v351.81c0 12.406 10.093 22.5 22.5 22.5h420c12.406 0 22.5-10.094 22.5-22.5v-351.81c0-4.143-3.357-7.5-7.5-7.5zm-7.5 15v293.78h-435v-293.78zm-7.5 351.81h-420c-4.136 0-7.5-3.364-7.5-7.5v-35.532h435v35.532c0 4.136-3.364 7.5-7.5 7.5z"/>
</g>
</svg>
