<?xml version="1.0" encoding="UTF-8"?>
<!-- Created with Inkscape (http://www.inkscape.org/) -->
<svg width="67.733mm" height="67.733mm" version="1.1" viewBox="0 0 67.733 67.733" xmlns="http://www.w3.org/2000/svg">
 <g transform="translate(-12.104 -23.666)">
  <g fill="#fff">
   <path d="m12.104 57.533 67.733-4.3e-4" stroke="#373737" stroke-width=".26666px"/>
   <path d="m45.617 57.439-2.1897-3.6822c-4.3919-6.7359-7.9599-10.71-10.921-12.164-3.104-1.5244-5.6193-0.64285-6.6476-0.13202-1.889 0.93843-4.2946 3.0373-6.2052 5.4139-1.6549 2.0585-6.0353 8.3537-6.7259 9.666l-0.59559 0.95662-0.22827 0.03523v-0.25019c1e-6 -0.13754 1.3559-2.2807 3.0132-4.7625 4.6521-6.9668 7.422-9.9302 10.745-11.496 0.38302-0.24492 2.9758-1.7365 6.721 0.11785 3.1214 1.5455 6.9111 5.7843 11.274 12.61 1.0894 1.7044 2.0548 3.4089 2.1453 3.378 0.09047-0.0309 1.4767-2.356 3.0805-4.7571 4.5568-6.8221 7.3441-9.7936 10.646-11.349 0.26142-0.16293 2.964-1.7424 6.7108 0.11284 1.9217 0.95158 4.7023 3.4967 6.9011 6.3167 1.7614 2.2591 6.5642 9.6407 6.5642 10.018l-0.39982 0.01706c-0.02053 0.07691-1.1034-2.0332-2.2111-3.7321-4.3919-6.7359-7.9599-10.71-10.921-12.164-3.143-1.5435-5.8161-0.52937-6.6476-0.13202-1.889 0.93843-4.2946 3.0373-6.2052 5.4139-1.6549 2.0585-6.0447 8.3488-6.7259 9.666l-0.473 0.91447"/>
  </g>
 </g>
</svg>
