<?xml version="1.0" encoding="UTF-8"?>
<!-- Created with Inkscape (http://www.inkscape.org/) -->
<svg width="67.733mm" height="67.733mm" version="1.1" viewBox="0 0 67.733 67.733" xmlns="http://www.w3.org/2000/svg">
 <g transform="translate(-12.104 -23.666)">
  <g fill="#fff">
   <path d="m12.104 57.533 67.733-4.3e-4" stroke="#373737" stroke-width=".26666px"/>
   <path d="m44.705 57.235c14.015 0.0186 27.684 0.0706 30.376 0.17139 2.9971 3.2984 3.7222 7.4067 4.3686 11.776 0.23431 1.7151 0.38903 3.501 0.34382 3.9688-0.0452 0.46771-0.23626-0.51183-0.42455-2.1768v7e-5c-0.77596-6.8611-2.1833-10.741-3.6855-12.134-0.97688-0.90597-0.73026-0.80404-1.8075-1.0524l-31.603-0.10409c-8.7557-0.04258-15.527 0.04258-26.331-6e-6 0 0-1.2725-0.85414-2.6361-7.3411-0.50957-2.4242-1.2015-7.8531-1.1648-9.1384 0.0168-0.58813 0.19297 0.35947 0.39213 2.1057 1.4082 12.347 3.3722 13.887 6.6269 13.925"/>
  </g>
 </g>
</svg>
