<?xml version="1.0" encoding="UTF-8"?>
<!-- Created with Inkscape (http://www.inkscape.org/) -->
<svg width="67.733mm" height="67.733mm" version="1.1" viewBox="0 0 67.733 67.733" xmlns="http://www.w3.org/2000/svg">
 <g transform="translate(-12.104 -23.666)" fill="#fff">
  <path d="m12.104 57.533 67.733-4.3e-4" stroke="#373737" stroke-width=".26666px"/>
  <g transform="translate(78.122 -31.007)">
   <path d="m-49.397 88.54v-17.003l-0.8764 0.14222c-6.9708 1.1312-15.038 16.076-15.33 16.746 0 0.19162-0.41462 0.0031-0.41462 0.0031 3.031-5.7567 9.1466-15.78 16.025-17.241l1.1245-0.17852v17.53"/>
   <path d="m-15.523 88.54v-17.003l-0.8764 0.14222c-6.9708 1.1312-15.038 16.076-15.33 16.746 0 0.19161-0.41462 3e-3 -0.41462 3e-3 3.031-5.7567 9.1466-15.78 16.025-17.241l1.1245-0.17852v17.53"/>
  </g>
 </g>
</svg>
