<?xml version="1.0" encoding="UTF-8"?>
<!-- Created with Inkscape (http://www.inkscape.org/) -->
<svg width="67.733mm" height="67.733mm" version="1.1" viewBox="0 0 67.733 67.733" xmlns="http://www.w3.org/2000/svg">
 <g transform="translate(-12.104 -23.666)" fill="#fff">
  <path d="m12.104 57.533 67.733-4.3e-4" stroke="#373737" stroke-width=".26666px"/>
  <g transform="translate(159.28 62.559)">
   <path d="m-130.26-5.1053c-0.0858-0.22368-0.69303-1.8662-0.93139-2.6975-0.70584-2.4618-3.0107-8.5202-3.9598-10.408-0.93822-1.5525-2.0019-4.3798-4.2467-3.6709-2.2844 0.93118-5.348 9.5292-7.389 16.073l-0.10315 0.33073-0.28016 0.39688-5.1e-4 -0.30417c-2.9e-4 -0.16729 0.65152-2.2682 1.4484-4.6687 5.0201-15.121 8.2361-17.307 13.752-0.98024 0.81117 2.4011 1.6728 5.3113 1.7562 5.5296"/>
   <path d="m-113.39-5.0263c-0.0858-0.22368-0.64787-1.9452-0.88623-2.7766-0.70584-2.4618-3.0107-8.5202-3.9598-10.408-0.93822-1.5525-2.0019-4.3798-4.2467-3.6709-2.2844 0.93118-5.348 9.5292-7.389 16.073l-0.14831 0.64688-0.235 0.08073-5.1e-4 -0.30417c-2.9e-4 -0.16729 0.65152-2.2682 1.4484-4.6687 5.0201-15.121 8.2361-17.307 13.752-0.98024 0.81117 2.4011 1.6389 4.9275 1.7223 5.1457"/>
  </g>
 </g>
</svg>
