<?xml version="1.0" encoding="UTF-8"?>
<!-- Created with Inkscape (http://www.inkscape.org/) -->
<svg width="67.733mm" height="67.733mm" version="1.1" viewBox="0 0 67.733 67.733" xmlns="http://www.w3.org/2000/svg">
 <g transform="translate(-12.104 -23.666)">
  <path d="m12.104 57.533 67.733-4.3e-4" fill="#505050" stroke="#373737" stroke-width=".26666px"/>
  <path d="m43.427 53.661c-4.3919-6.7359-7.9599-10.71-10.921-12.164-3.143-1.5435-5.8162-0.52938-6.6476-0.13203-1.889 0.93843-4.2946 3.0373-6.2052 5.4139-3.3901 4.2171-6.8445 10.11-7.5487 10.658l-5.32e-4 -0.25015c-2.93e-4 -0.13755 1.3554-2.2807 3.0127-4.7625 5.6972-8.5318 10.906-14.626 17.466-11.378 3.1321 1.5508 6.8287 5.6913 11.386 12.753l2.3174 3.6025-0.31508 0.13216" fill="#fff"/>
 </g>
</svg>
